<?xml version="1.0" encoding="utf-8"?>
<!-- Generator: Adobe Illustrator 23.0.3, SVG Export Plug-In . SVG Version: 6.00 Build 0)  -->
<svg version="1.1" id="cxr_-_copie" xmlns="http://www.w3.org/2000/svg" xmlns:xlink="http://www.w3.org/1999/xlink" x="0px"
	 y="0px" viewBox="64.489 95.384 521.895 273.176" enable-background="new 64.489 95.384 521.895 273.176" xml:space="preserve">
<g>
	<g>
		<g enable-background="new    ">
			<g>
				<path fill="#0062AC" d="M102.334,209.421c0,27.705,19.778,45.146,59.781,45.146
					C122.112,254.566,102.334,237.125,102.334,209.421z"/>
			</g>
			<g>
				<path fill="#0062AC" d="M162.115,254.566l48.141,0.026L162.115,254.566z"/>
			</g>
			<g>
				<path fill="#0062AC" d="M471.317,95.464c6.175,0,49.911,1.504,47.233,44.163c-0.243,2.935-4.869,58.698-47.772,58.698h-22.995
					l47.214,87.866h-38.411l-62.784-120.356h21.86h51.831c12.563,0,15.564-20.511,15.724-21.591
					c0.639-15.428-10.48-16.381-13.238-16.381c-0.39,0-0.602,0.018-0.612,0.019l-57.78,0.027l-52.82,89.28l-17.829-33.066
					l52.533-88.614l77.13-0.036C470.611,95.473,470.85,95.464,471.317,95.464z"/>
			</g>
			<g>
				<path fill="#0062AC" d="M186.616,95.384c2.499,0,3.824,0.085,3.894,0.089h75.024l28.791,53.424l32.147-53.424h38.421
					l-52.703,86.571l56.133,104.166l-36.531-0.019l-38.942-72.359l-94.176,154.71l-36.531,0.018l112.95-187.704l-28.467-52.893
					h-69.768c-2.327,0.021-46.539,0.432-66.258,46.467c-20.223,47.223-3.438,80.136,51.516,80.136l48.141,0.026l-19.242,31.671
					l-33.957,0.055c-79.137,0-109.89-50.526-83.088-119.853C99.812,99.619,169.396,95.384,186.616,95.384z"/>
			</g>
		</g>
	</g>
</g>
<g>
	<g>
		<g enable-background="new    ">
			<g>
				<path fill="#0062AC" d="M261.259,310.528h5.769H261.259z"/>
			</g>
			<g>
				<path fill="#0062AC" d="M274.642,315.145l10.314,16.164L274.642,315.145z"/>
			</g>
			<g>
				<path fill="#0062AC" d="M296.323,310.393c0.927,0,1.71,0.027,2.34,0.091c0.621,0.054,1.106,0.152,1.449,0.287
					c0.342,0.136,0.575,0.298,0.72,0.478c0.135,0.188,0.198,0.387,0.198,0.621v39.744c0,0.53-0.108,0.989-0.324,1.403
					c-0.216,0.414-0.513,0.757-0.882,1.026c-0.369,0.27-0.801,0.477-1.306,0.594c-0.504,0.126-1.017,0.19-1.538,0.19h-4.581
					c-0.954,0-1.782-0.072-2.476-0.234c-0.692-0.162-1.341-0.45-1.926-0.873c-0.585-0.423-1.152-0.99-1.692-1.71
					c-0.549-0.72-1.161-1.646-1.845-2.781l-13.176-20.682c-0.765-1.233-1.539-2.556-2.331-3.987
					c-0.792-1.422-1.503-2.808-2.124-4.148c0.027,1.638,0.108,3.275,0.162,4.905c0.054,1.629,0.081,3.311,0.081,5.039v23.14
					c0,0.233-0.072,0.432-0.225,0.621c-0.153,0.18-0.414,0.333-0.783,0.459c-0.36,0.126-0.864,0.225-1.485,0.288
					c-0.63,0.071-1.44,0.107-2.421,0.107c-0.954,0-1.746-0.036-2.367-0.107c-0.63-0.063-1.125-0.162-1.476-0.288
					c-0.351-0.126-0.603-0.279-0.738-0.459c-0.135-0.189-0.207-0.388-0.207-0.621v-39.753c0-1.071,0.378-1.872,1.125-2.403
					c0.756-0.54,1.674-0.809,2.763-0.809h5.769c1.035,0,1.908,0.081,2.619,0.225c0.711,0.153,1.35,0.396,1.908,0.738
					c0.558,0.342,1.08,0.81,1.575,1.413c0.486,0.611,0.99,1.35,1.512,2.24l10.314,16.164c0.594,0.982,1.188,1.944,1.772,2.89
					c0.586,0.944,1.152,1.898,1.701,2.844c0.549,0.945,1.08,1.872,1.594,2.781c0.521,0.909,1.025,1.827,1.521,2.735
					c-0.045-1.593-0.108-3.258-0.144-4.994c-0.045-1.728-0.063-3.375-0.063-4.95v-20.745c0-0.234,0.081-0.433,0.243-0.621
					c0.162-0.18,0.441-0.342,0.819-0.478c0.378-0.135,0.882-0.233,1.512-0.287C294.541,310.42,295.342,310.393,296.323,310.393z"/>
			</g>
		</g>
		<g enable-background="new    ">
			<g>
				<path fill="#0062AC" d="M344.689,330.148c0.656,1.826,0.979,3.807,0.979,5.948v1.368c0,1.053-0.278,1.827-0.836,2.322
					c-0.559,0.504-1.332,0.756-2.313,0.756h-22.212c0,1.296,0.181,2.475,0.55,3.537c0.368,1.061,0.953,1.962,1.755,2.7
					c0.811,0.737,1.846,1.305,3.113,1.691c1.27,0.388,2.79,0.585,4.563,0.585c1.801,0,3.385-0.108,4.743-0.333
					c1.368-0.216,2.548-0.449,3.546-0.711c0.99-0.261,1.818-0.504,2.476-0.72c0.647-0.216,1.18-0.324,1.594-0.324
					c0.242,0,0.449,0.036,0.61,0.117c0.162,0.081,0.298,0.225,0.414,0.432c0.101,0.198,0.181,0.495,0.227,0.864
					c0.035,0.378,0.055,0.855,0.055,1.422c0,0.504-0.01,0.928-0.037,1.278c-0.026,0.36-0.072,0.657-0.125,0.909
					c-0.055,0.252-0.136,0.459-0.244,0.63c-0.107,0.171-0.252,0.342-0.432,0.495c-0.181,0.162-0.656,0.378-1.449,0.657
					c-0.791,0.27-1.8,0.54-3.033,0.801c-1.224,0.261-2.627,0.485-4.211,0.684c-1.584,0.189-3.276,0.288-5.076,0.288
					c-3.24,0-6.084-0.342-8.532-1.025c-2.438-0.685-4.473-1.72-6.11-3.105c-1.639-1.395-2.862-3.15-3.663-5.265
					c-0.811-2.124-1.206-4.608-1.206-7.452c0-2.709,0.423-5.157,1.269-7.335c0.847-2.179,2.07-4.023,3.682-5.535
					c1.61-1.512,3.563-2.673,5.868-3.474c2.304-0.793,4.904-1.189,7.794-1.189c3.061,0,5.67,0.369,7.84,1.125
					c2.168,0.747,3.95,1.791,5.336,3.123C343.015,326.746,344.032,328.33,344.689,330.148z M335.689,335.008
					c0.08-2.421-0.495-4.311-1.737-5.697c-1.242-1.377-3.158-2.061-5.75-2.061c-1.306,0-2.449,0.198-3.421,0.612
					c-0.963,0.404-1.773,0.963-2.412,1.655c-0.639,0.693-1.134,1.521-1.477,2.467c-0.333,0.944-0.53,1.952-0.585,3.023H335.689"/>
			</g>
		</g>
		<g enable-background="new    ">
			<g>
				<path fill="#0062AC" d="M366.172,321.949h7.938H366.172z"/>
			</g>
			<g>
				<path fill="#0062AC" d="M351.565,321.949h4.338H351.565z"/>
			</g>
			<g>
				<path fill="#0062AC" d="M361.015,313.714c1.009,0,1.846,0.027,2.521,0.081c0.666,0.063,1.188,0.153,1.575,0.279
					c0.378,0.117,0.647,0.278,0.818,0.459c0.161,0.18,0.243,0.387,0.243,0.611v6.805h7.938c0.27,0,0.514,0.054,0.721,0.171
					c0.197,0.117,0.369,0.297,0.504,0.566c0.135,0.262,0.242,0.621,0.314,1.071c0.063,0.459,0.1,1.018,0.1,1.674
					c0,1.261-0.136,2.151-0.414,2.683c-0.27,0.54-0.666,0.81-1.189,0.81h-7.976v14.319c0,1.665,0.315,2.907,0.945,3.744
					c0.621,0.828,1.736,1.241,3.348,1.241c0.55,0,1.035-0.035,1.478-0.116c0.433-0.081,0.827-0.171,1.17-0.271
					c0.333-0.107,0.621-0.198,0.854-0.278c0.234-0.081,0.441-0.117,0.63-0.117c0.171,0,0.323,0.036,0.478,0.117
					c0.145,0.08,0.262,0.242,0.342,0.477c0.082,0.243,0.162,0.567,0.234,0.98c0.063,0.405,0.1,0.937,0.1,1.566
					c0,1.008-0.082,1.774-0.225,2.314c-0.153,0.53-0.353,0.908-0.595,1.125c-0.243,0.216-0.611,0.413-1.09,0.585
					c-0.477,0.171-1.034,0.314-1.674,0.44c-0.639,0.126-1.332,0.226-2.088,0.288c-0.746,0.072-1.502,0.108-2.269,0.108
					c-2.052,0-3.824-0.216-5.317-0.648c-1.504-0.44-2.746-1.107-3.728-2.007c-0.979-0.9-1.7-2.034-2.169-3.393
					c-0.459-1.368-0.692-2.988-0.692-4.86v-15.615h-4.384c-0.514,0-0.908-0.27-1.18-0.81c-0.278-0.531-0.413-1.422-0.413-2.683
					c0-0.656,0.036-1.215,0.1-1.674c0.071-0.45,0.171-0.81,0.314-1.071c0.136-0.27,0.308-0.449,0.505-0.566
					c0.207-0.117,0.45-0.171,0.721-0.171h4.338v-6.805c0-0.225,0.071-0.432,0.226-0.611c0.145-0.181,0.423-0.342,0.818-0.459
					c0.397-0.126,0.928-0.216,1.594-0.279C359.206,313.741,360.034,313.714,361.015,313.714z"/>
			</g>
		</g>
		<g enable-background="new    ">
			<g>
				<path fill="#0062AC" d="M390.021,323.209l7.245,22.392L390.021,323.209z"/>
			</g>
			<g>
				<path fill="#0062AC" d="M397.429,345.601l6.795-22.392L397.429,345.601z"/>
			</g>
			<g>
				<path fill="#0062AC" d="M414.457,323.074l7.28,22.563L414.457,323.074z"/>
			</g>
			<g>
				<path fill="#0062AC" d="M421.945,345.601l6.947-22.392L421.945,345.601z"/>
			</g>
			<g>
				<path fill="#0062AC" d="M434.095,321.742c1.008,0,1.836,0.026,2.476,0.072c0.64,0.045,1.144,0.116,1.512,0.216
					c0.369,0.107,0.621,0.243,0.757,0.414c0.135,0.171,0.207,0.369,0.207,0.594c0,0.252-0.045,0.566-0.126,0.927
					c-0.081,0.369-0.234,0.892-0.45,1.575l-9.737,27.576c-0.136,0.395-0.314,0.702-0.531,0.944
					c-0.216,0.234-0.549,0.424-0.999,0.567c-0.449,0.135-1.099,0.225-1.926,0.271c-0.828,0.045-1.917,0.071-3.249,0.071
					c-1.342,0-2.431-0.036-3.275-0.09c-0.847-0.054-1.512-0.153-1.98-0.288c-0.484-0.135-0.827-0.324-1.044-0.566
					c-0.225-0.234-0.388-0.54-0.494-0.909l-6.139-18.522l-0.081-0.306l-0.081,0.306l-5.651,18.522
					c-0.107,0.395-0.262,0.702-0.469,0.944c-0.207,0.234-0.549,0.424-1.044,0.567c-0.485,0.135-1.16,0.225-2.007,0.271
					c-0.846,0.045-1.935,0.071-3.268,0.071c-1.367,0-2.466-0.036-3.293-0.09c-0.838-0.054-1.486-0.153-1.973-0.288
					c-0.468-0.135-0.818-0.324-1.034-0.566c-0.226-0.234-0.388-0.54-0.495-0.909l-9.656-27.576
					c-0.244-0.666-0.397-1.179-0.469-1.557c-0.072-0.378-0.107-0.693-0.107-0.945c0-0.225,0.08-0.423,0.234-0.594
					c0.143-0.171,0.414-0.307,0.817-0.414c0.388-0.1,0.918-0.171,1.594-0.216c0.666-0.046,1.503-0.072,2.511-0.072
					c1.099,0,1.979,0.026,2.664,0.072c0.685,0.045,1.215,0.126,1.594,0.233c0.387,0.117,0.647,0.27,0.801,0.468
					c0.145,0.189,0.262,0.424,0.342,0.693l7.245,22.392l0.081,0.414l0.081-0.414l6.795-22.392c0.081-0.27,0.217-0.504,0.388-0.693
					c0.18-0.197,0.449-0.351,0.801-0.468c0.352-0.107,0.854-0.189,1.494-0.233c0.639-0.046,1.467-0.072,2.475-0.072
					c1.009,0,1.828,0.026,2.457,0.09c0.621,0.054,1.125,0.135,1.494,0.234c0.369,0.107,0.621,0.242,0.774,0.414
					c0.152,0.171,0.261,0.368,0.351,0.594l7.281,22.563l0.117,0.378l0.09-0.414l6.947-22.392c0.055-0.27,0.172-0.504,0.333-0.693
					c0.162-0.197,0.433-0.351,0.819-0.468c0.378-0.107,0.899-0.189,1.557-0.233C432.25,321.769,433.087,321.742,434.095,321.742z"/>
			</g>
		</g>
		<g>
			<path fill="#0062AC" d="M481.39,330.832c0.766,2.097,1.152,4.5,1.152,7.218c0,2.592-0.414,4.968-1.233,7.11
				c-0.818,2.142-2.061,3.987-3.717,5.535c-1.665,1.548-3.753,2.745-6.265,3.591c-2.511,0.837-5.444,1.26-8.802,1.26
				c-3.24,0-6.065-0.378-8.47-1.125c-2.395-0.756-4.393-1.845-5.967-3.285c-1.584-1.431-2.754-3.194-3.52-5.292
				c-0.766-2.097-1.151-4.491-1.151-7.182c0-2.602,0.423-4.978,1.251-7.128c0.827-2.151,2.078-3.996,3.743-5.535
				c1.665-1.539,3.744-2.727,6.237-3.573c2.502-0.846,5.427-1.26,8.774-1.26c3.275,0,6.11,0.369,8.515,1.108
				c2.402,0.737,4.383,1.826,5.958,3.267C479.464,326.971,480.625,328.735,481.39,330.832z M471.409,342.712
				c0.352-1.26,0.531-2.709,0.531-4.32c0-1.503-0.145-2.889-0.433-4.157c-0.279-1.261-0.766-2.358-1.449-3.294
				c-0.685-0.937-1.593-1.665-2.718-2.188c-1.135-0.531-2.557-0.792-4.274-0.792c-1.53,0-2.871,0.234-4.015,0.702
				c-1.144,0.468-2.088,1.152-2.826,2.052c-0.737,0.9-1.286,1.98-1.655,3.249c-0.369,1.26-0.549,2.7-0.549,4.32
				c0,1.503,0.152,2.889,0.449,4.158c0.297,1.26,0.783,2.357,1.449,3.294c0.666,0.936,1.574,1.655,2.727,2.169
				c1.144,0.513,2.557,0.773,4.248,0.773c1.558,0,2.907-0.233,4.051-0.702c1.151-0.468,2.088-1.143,2.826-2.033
				C470.509,345.052,471.058,343.981,471.409,342.712"/>
		</g>
		<g>
			<path fill="#0062AC" d="M509.173,321.166c0.359,0,0.737,0.009,1.144,0.045c0.414,0.036,0.837,0.09,1.27,0.171
				c0.44,0.081,0.818,0.171,1.151,0.279c0.323,0.099,0.566,0.207,0.711,0.324c0.152,0.107,0.262,0.233,0.333,0.368
				c0.063,0.145,0.126,0.333,0.181,0.567c0.054,0.243,0.099,0.603,0.126,1.08c0.026,0.477,0.035,1.125,0.035,1.944
				c0,0.818-0.026,1.493-0.08,2.016c-0.055,0.531-0.136,0.935-0.243,1.233c-0.107,0.297-0.252,0.504-0.433,0.611
				c-0.18,0.117-0.404,0.171-0.675,0.171c-0.217,0-0.459-0.036-0.738-0.116c-0.271-0.081-0.575-0.162-0.918-0.252
				c-0.342-0.091-0.72-0.181-1.125-0.262c-0.404-0.081-0.855-0.117-1.351-0.117c-0.575,0-1.142,0.1-1.719,0.288
				c-0.576,0.198-1.17,0.495-1.782,0.909c-0.611,0.405-1.251,0.954-1.917,1.638c-0.675,0.685-1.386,1.53-2.15,2.529v19.008
				c0,0.226-0.081,0.423-0.242,0.595c-0.172,0.171-0.45,0.315-0.847,0.432c-0.388,0.108-0.918,0.198-1.575,0.252
				c-0.647,0.054-1.484,0.09-2.492,0.09c-1.009,0-1.846-0.036-2.493-0.09c-0.657-0.054-1.18-0.143-1.575-0.252
				c-0.396-0.117-0.675-0.261-0.837-0.432c-0.171-0.172-0.252-0.369-0.252-0.595V323.11c0-0.226,0.071-0.424,0.207-0.595
				c0.135-0.171,0.387-0.314,0.737-0.432c0.352-0.117,0.811-0.198,1.368-0.252c0.559-0.064,1.261-0.09,2.105-0.09
				c0.873,0,1.603,0.026,2.169,0.09c0.576,0.054,1.018,0.135,1.332,0.252c0.314,0.117,0.54,0.261,0.676,0.432
				c0.135,0.171,0.207,0.369,0.207,0.595v3.798c0.953-1.143,1.854-2.079,2.699-2.826c0.847-0.738,1.647-1.323,2.412-1.755
				c0.766-0.433,1.529-0.738,2.295-0.909C507.643,321.247,508.408,321.166,509.173,321.166z"/>
		</g>
		<g enable-background="new    ">
			<g>
				<path fill="#0062AC" d="M530.782,335.413l10.8-12.132L530.782,335.413z"/>
			</g>
			<g>
				<path fill="#0062AC" d="M541.087,335.584l12.356,15.966L541.087,335.584z"/>
			</g>
			<g>
				<path fill="#0062AC" d="M525.625,307.18c1.008,0,1.836,0.036,2.492,0.108c0.657,0.063,1.18,0.162,1.575,0.288
					c0.397,0.126,0.675,0.278,0.837,0.459c0.171,0.189,0.252,0.387,0.252,0.621v26.757l10.8-12.132
					c0.217-0.271,0.459-0.514,0.738-0.721c0.271-0.206,0.63-0.359,1.08-0.477c0.449-0.117,1.008-0.198,1.674-0.252
					c0.675-0.064,1.529-0.09,2.565-0.09c1.008,0,1.862,0.026,2.557,0.09c0.692,0.054,1.251,0.135,1.674,0.252
					c0.424,0.117,0.721,0.261,0.883,0.432c0.161,0.172,0.242,0.378,0.242,0.631c0,0.342-0.1,0.701-0.307,1.089
					c-0.207,0.387-0.513,0.801-0.918,1.232l-10.683,10.116l12.357,15.966c0.333,0.45,0.566,0.847,0.72,1.18
					c0.154,0.332,0.226,0.63,0.226,0.899c0,0.234-0.071,0.432-0.226,0.604c-0.153,0.171-0.423,0.306-0.818,0.404
					c-0.396,0.108-0.937,0.19-1.62,0.243c-0.685,0.054-1.565,0.09-2.654,0.09c-1.125,0-2.024-0.026-2.719-0.071
					c-0.701-0.046-1.277-0.117-1.719-0.226c-0.459-0.099-0.802-0.243-1.044-0.423c-0.252-0.18-0.469-0.423-0.657-0.72
					l-12.149-16.065v16.137c0,0.226-0.081,0.424-0.252,0.595c-0.162,0.171-0.44,0.315-0.837,0.432
					c-0.396,0.108-0.918,0.198-1.575,0.252c-0.656,0.054-1.484,0.09-2.492,0.09c-1.009,0-1.846-0.036-2.502-0.09
					c-0.648-0.054-1.18-0.143-1.566-0.252c-0.404-0.117-0.684-0.261-0.846-0.432s-0.243-0.369-0.243-0.595v-44.945
					c0-0.234,0.081-0.433,0.243-0.621c0.162-0.18,0.44-0.333,0.846-0.459c0.388-0.126,0.918-0.226,1.566-0.288
					C523.78,307.216,524.617,307.18,525.625,307.18z"/>
			</g>
		</g>
		<g>
			<path fill="#0062AC" d="M573.577,321.166c1.143,0,2.26,0.063,3.34,0.198c1.07,0.144,2.043,0.314,2.925,0.513
				c0.863,0.207,1.603,0.432,2.205,0.666c0.604,0.243,1.025,0.45,1.286,0.621c0.262,0.171,0.45,0.342,0.559,0.513
				c0.107,0.171,0.189,0.369,0.243,0.612c0.054,0.243,0.1,0.54,0.144,0.891c0.036,0.352,0.064,0.792,0.064,1.315
				c0,0.612-0.026,1.116-0.064,1.503c-0.045,0.387-0.107,0.693-0.207,0.927c-0.091,0.225-0.226,0.378-0.388,0.459
				c-0.162,0.081-0.359,0.117-0.575,0.117c-0.243,0-0.631-0.117-1.144-0.36c-0.521-0.233-1.17-0.495-1.943-0.765
				c-0.773-0.271-1.675-0.531-2.7-0.774c-1.025-0.233-2.188-0.351-3.501-0.351c-0.928,0-1.729,0.072-2.412,0.234
				c-0.685,0.161-1.241,0.387-1.674,0.684c-0.44,0.297-0.766,0.648-0.99,1.044c-0.216,0.397-0.323,0.828-0.323,1.278
				c0,0.711,0.261,1.305,0.782,1.782c0.514,0.477,1.197,0.899,2.044,1.26c0.846,0.369,1.809,0.711,2.88,1.025
				c1.08,0.324,2.169,0.666,3.275,1.044c1.107,0.379,2.195,0.819,3.275,1.314c1.08,0.504,2.034,1.116,2.88,1.845
				c0.847,0.729,1.53,1.603,2.043,2.619c0.522,1.018,0.783,2.214,0.783,3.609c0,1.728-0.387,3.258-1.17,4.571
				c-0.774,1.323-1.872,2.431-3.294,3.321c-1.413,0.892-3.096,1.558-5.031,1.998c-1.935,0.441-4.031,0.666-6.3,0.666
				c-1.358,0-2.664-0.081-3.906-0.252c-1.241-0.171-2.349-0.387-3.339-0.657c-0.98-0.261-1.8-0.521-2.447-0.801
				c-0.656-0.27-1.135-0.531-1.432-0.765c-0.307-0.243-0.531-0.621-0.702-1.135c-0.162-0.513-0.243-1.269-0.243-2.268
				c0-0.666,0.027-1.188,0.081-1.593c0.055-0.397,0.136-0.711,0.243-0.954c0.107-0.243,0.252-0.397,0.414-0.478
				c0.162-0.081,0.369-0.126,0.612-0.126c0.297,0,0.747,0.145,1.331,0.433c0.586,0.288,1.313,0.594,2.188,0.935
				c0.873,0.342,1.891,0.666,3.052,0.963c1.151,0.298,2.476,0.441,3.941,0.441c0.927,0,1.755-0.081,2.476-0.234
				c0.73-0.162,1.351-0.387,1.881-0.684c0.54-0.297,0.937-0.675,1.216-1.134c0.269-0.45,0.404-0.981,0.404-1.566
				c0-0.684-0.253-1.278-0.757-1.764c-0.504-0.486-1.17-0.918-2.007-1.278c-0.828-0.369-1.772-0.711-2.826-1.026
				c-1.044-0.323-2.124-0.675-3.23-1.061c-1.099-0.387-2.179-0.837-3.231-1.332c-1.044-0.504-1.988-1.116-2.815-1.845
				c-0.838-0.73-1.504-1.611-2.008-2.638c-0.505-1.025-0.757-2.25-0.757-3.689c0-1.458,0.333-2.799,1.019-4.014
				c0.684-1.225,1.664-2.26,2.951-3.133c1.277-0.863,2.845-1.539,4.681-2.016C569.221,321.4,571.282,321.166,573.577,321.166z"/>
		</g>
	</g>
</g>
</svg>
